<?xml version="1.0" encoding="UTF-8"?>
<svg width="24px" height="31px" viewBox="0 0 24 31" version="1.1" xmlns="http://www.w3.org/2000/svg" xmlns:xlink="http://www.w3.org/1999/xlink">
    <!-- Generator: sketchtool 52.5 (67469) - http://www.bohemiancoding.com/sketch -->
    <title>8BE0FBAF-D906-477B-8EDE-CC83BF08C509</title>
    <desc>Created with sketchtool.</desc>
    <g id="Home-page---desktop" stroke="none" stroke-width="1" fill="none" fill-rule="evenodd">
        <g id="Desktop---home-page" transform="translate(-229.000000, -4148.000000)" fill="#000000" fill-rule="nonzero">
            <g id="Group-20" transform="translate(218.000000, 4140.000000)">
                <g id="Group-28">
                    <g id="apple-icon" transform="translate(11.000000, 8.000000)">
                        <path d="M17.6327905,0.841760554 C15.9763022,1.3907603 14.4048728,1.94644256 13.2519573,3.09149522 C12.0991471,4.23789128 11.4897865,5.94944224 11.6818981,8.43061933 C11.7093464,8.82619676 12.1443994,9.14241069 12.5382844,9.05495239 C14.2592784,8.67549568 15.9459818,8.00944855 17.1387039,6.77290741 C18.3314261,5.53636627 18.9461622,3.71582828 18.5550176,1.3800476 C18.4562038,0.837799269 18.0458586,0.724782067 17.6327554,0.841829446 L17.6327905,0.841760554 Z M7.43302735,9.41012471 C8.29215412,9.41012471 9.15128088,9.77342627 10.0131832,10.195906 C10.8750504,10.6184202 11.7081079,11.1324228 12.7030971,11.1324228 C13.8284678,11.0274694 14.8865924,10.5457736 15.7663427,10.1851589 C16.7832904,9.77073948 17.8071245,9.41012471 18.6758427,9.41012471 C20.2459019,9.41012471 21.9243489,10.3964159 22.9467072,11.4445721 C21.0143483,13.1251562 19.3785187,15.0989442 19.3785187,17.3327649 C19.3908703,20.3548469 21.3877504,22.0084597 23.4958485,23.4682796 C23.1129604,25.1125232 22.268906,26.8307911 21.2011899,28.139841 C20.0469744,29.5540199 18.6759481,30.421886 17.6217585,30.421886 C16.7241954,30.421886 15.9570138,30.1339384 15.1843513,29.7975529 C14.4116888,29.4611674 13.6403965,29.0440475 12.7030268,29.0440475 C11.7656571,29.0440475 10.9312294,29.4477197 10.0679919,29.7867713 C9.20475452,30.1258229 8.33052022,30.421886 7.43295708,30.421886 C7.03770185,30.421886 6.31032683,30.094918 5.52255681,29.3669784 C4.73478679,28.6390319 3.8811409,27.5531918 3.11806994,26.2453131 C1.59333336,23.6282122 0.406162326,20.1070426 0.406162326,16.6435012 C0.340286455,12.5168749 3.85366627,9.41673833 7.43292195,9.40984914 L7.43302735,9.41012471 Z" id="Shape"></path>
                    </g>
                </g>
            </g>
        </g>
    </g>
</svg>