<?xml version="1.0" encoding="UTF-8"?>
<svg width="24px" height="18px" viewBox="0 0 24 18" version="1.1" xmlns="http://www.w3.org/2000/svg" xmlns:xlink="http://www.w3.org/1999/xlink">
    <!-- Generator: sketchtool 52.5 (67469) - http://www.bohemiancoding.com/sketch -->
    <title>A9366C45-00A3-46AA-982C-80B4674B18A5</title>
    <desc>Created with sketchtool.</desc>
    <g id="Home-page---desktop" stroke="none" stroke-width="1" fill="none" fill-rule="evenodd">
        <g id="Desktop---home-page" transform="translate(-1248.000000, -1380.000000)" fill="#000000">
            <g id="Group-12-Copy" transform="translate(1003.000000, 1369.000000)">
                <g id="np_back_1548680_000000-copy-4" transform="translate(257.000000, 20.000000) scale(-1, 1) translate(-257.000000, -20.000000) translate(245.000000, 11.000000)">
                    <g id="All-restaurants-arrows">
                        <path d="M23.843399,0.171587693 C23.604534,-0.0571958977 23.2468182,-0.0571958977 23.0079473,0.171587693 L14.1791487,8.59976514 C13.9402838,8.82854873 13.9402838,9.171167 14.1791487,9.3999563 L22.9787148,17.8281337 C23.0975656,17.9419684 23.2467108,18 23.3958441,18 C23.5449773,18 23.6941345,17.9430827 23.8129733,17.8281337 C24.0518383,17.5993502 24.0518383,17.2567319 23.8129733,17.0279426 L15.462036,8.99917504 L23.8445921,0.970407494 C24.0519964,0.742738137 24.0519964,0.399005634 23.843427,0.171330562 L23.843399,0.171587693 Z" id="Path"></path>
                        <path d="M9.84339896,0.171587693 C9.60453399,-0.0571958977 9.24681821,-0.0571958977 9.00794728,0.171587693 L0.179148726,8.59976514 C-0.0597162418,8.82854873 -0.0597162418,9.171167 0.179148726,9.3999563 L8.97871482,17.8281337 C9.09756564,17.9419684 9.24671083,18 9.39584408,18 C9.54497734,18 9.69413446,17.9430827 9.81297334,17.8281337 C10.0518383,17.5993502 10.0518383,17.2567319 9.81297334,17.0279426 L1.46203597,8.99917504 L9.84459212,0.970407494 C10.0519964,0.742738137 10.0519964,0.399005634 9.843427,0.171330562 L9.84339896,0.171587693 Z" id="Path"></path>
                    </g>
                </g>
            </g>
        </g>
    </g>
</svg>