<?xml version="1.0" encoding="UTF-8"?>
<svg width="23px" height="23px" viewBox="0 0 23 23" version="1.1" xmlns="http://www.w3.org/2000/svg" xmlns:xlink="http://www.w3.org/1999/xlink">
    <!-- Generator: sketchtool 52.5 (67469) - http://www.bohemiancoding.com/sketch -->
    <title>1E52C43B-376D-48F0-AA29-B9AD72976FD0</title>
    <desc>Created with sketchtool.</desc>
    <g id="Home-page---desktop" stroke="none" stroke-width="1" fill="none" fill-rule="evenodd">
        <g id="desktop---claro" transform="translate(-1244.000000, -22.000000)" fill="#000000" fill-rule="nonzero">
            <g id="User-Icon-Copy" transform="translate(1244.000000, 22.000000)">
                <g id="noun_User_1331891_000000" transform="translate(0.500000, 0.000000)">
                    <path d="M18.0442115,22.9969209 C16.9311759,22.9969209 15.7529626,22.7225681 14.5346399,22.437959 C13.2812215,22.1456579 11.9952142,21.8431006 10.7217411,21.8431006 C9.448268,21.8431006 8.19735643,22.15335 6.98655424,22.4533433 C4.49977211,23.0712782 2.15337284,23.6558805 0.145396536,21.1943972 L0,20.9841455 L0.0376025524,20.7431252 C0.599134002,17.0073114 2.5118505,13.9996865 5.42228806,12.2817762 L5.78828624,12.0663964 L6.08409298,12.37921 C7.36237458,13.7599364 9.13963714,14.5420873 10.9987466,14.5420873 C12.857856,14.5420873 14.6351186,13.7599364 15.9134002,12.37921 L16.2041933,12.0663964 L16.5752051,12.2817762 C19.4881495,14.0048146 21.400866,17.0098755 21.9623974,20.7431252 L22,20.9995297 L21.8420693,21.1943972 C20.9304729,22.3814679 19.5190449,23.0513541 18.0442115,22.9969209 Z M10.7342753,21.3431118 C12.0628988,21.3431118 13.381495,21.6507972 14.6549681,21.9507905 C17.3272562,22.5764175 19.6360529,23.117431 21.4635369,20.8738915 L21.4810848,20.8533792 L21.4810848,20.8303027 C20.9421149,17.2406395 19.1146308,14.368909 16.3345488,12.725356 L16.2994531,12.7048437 L16.2718778,12.7356122 C14.899751,14.2092243 12.9971044,15.0432529 11.0075205,15.0432529 C9.01793659,15.0432529 7.11529002,14.2092243 5.74316317,12.7356122 L5.71308113,12.7048437 L5.67798541,12.725356 C2.88286235,14.368909 1.0553783,17.2457676 0.518915223,20.8303027 L0.518915223,20.8559432 L0.536463081,20.8764556 C2.34389243,23.0943546 4.44712853,22.5712894 6.88377393,21.9661747 C8.10961714,21.6610534 9.38309025,21.3431118 10.7342753,21.3431118 Z M10.9974932,13.5791831 C7.3313696,13.5791831 4.35938924,10.5393794 4.35938924,6.78959154 C4.35938924,3.03980367 7.3313696,6.83198869e-16 10.9974932,0 C14.6636167,-6.83198869e-16 17.6355971,3.03980367 17.6355971,6.78959154 C17.6314526,10.5376221 14.6618987,13.574944 10.9974932,13.5791831 Z M10.9974932,0.502552848 C8.51011723,0.502553059 6.26771155,2.03524315 5.31606835,4.38582141 C4.36442515,6.73639968 4.89099028,9.44187101 6.65018921,11.2404829 C8.40938814,13.0390949 11.0547102,13.5765735 13.3524547,12.6022546 C15.6501993,11.6279357 17.1477779,9.33373146 17.1467639,6.78959154 C17.1440014,3.31669568 14.3929013,0.501665746 10.9974932,0.497424758 L10.9974932,0.502552848 Z" id="Shape"></path>
                </g>
            </g>
        </g>
    </g>
</svg>