<?xml version="1.0" encoding="UTF-8"?>
<svg width="22px" height="22px" viewBox="0 0 22 22" version="1.1" xmlns="http://www.w3.org/2000/svg" xmlns:xlink="http://www.w3.org/1999/xlink">
    <!-- Generator: sketchtool 52.5 (67469) - http://www.bohemiancoding.com/sketch -->
    <title>FB4831FA-3803-41DA-B23F-2D985803E2A4</title>
    <desc>Created with sketchtool.</desc>
    <g id="Home-page---desktop" stroke="none" stroke-width="1" fill="none" fill-rule="evenodd">
        <g id="desktop---claro" transform="translate(-1181.000000, -22.000000)" fill="#000000">
            <g id="np_search_1543701_000000-copy-2" transform="translate(1181.000000, 22.000000)">
                <path d="M7.99805742,0.000113690419 C3.58663154,0.000113690419 0,3.58193035 0,7.98743411 C0,12.3929379 3.58663154,15.9747545 7.99805742,15.9747545 C10.1037021,15.9747545 12.0116011,15.1509537 13.4346418,13.8430592 L21.5169432,21.9145105 C21.5736428,21.971134 21.6592472,22 21.7159469,22 C21.7726465,22 21.8582509,21.971134 21.9149506,21.9145105 C22.0283498,21.8012635 22.0283498,21.6302844 21.9149506,21.5170488 L13.8326491,13.4154695 C15.1700796,11.9943393 15.96721,10.090309 15.96721,7.98618351 C15.995004,3.58181666 12.4096085,0 7.99818265,0 L7.99805742,0.000113690419 Z M13.3199447,13.160064 C13.2910399,13.160064 13.263245,13.18893 13.2343402,13.2166875 C13.2054354,13.2455535 13.2054354,13.273311 13.1776406,13.302177 C11.8402101,14.6100716 10.0179213,15.404995 7.99805742,15.404995 C3.89913126,15.404995 0.569216242,12.0798344 0.569216242,7.98726357 C0.569216242,3.89384002 3.89884665,0.568395252 7.99805742,0.568395252 C12.0958451,0.568395252 15.4268986,3.89355579 15.4268986,7.98726357 C15.4257869,10.0046148 14.6286582,11.8243152 13.3201439,13.1598934 L13.3199447,13.160064 Z" id="Shape" fill-rule="nonzero"></path>
                <path d="M7.28805399,2 C7.11477223,2 7,2.11477223 7,2.28805399 C7,2.46133575 7.11477223,2.57610798 7.28805399,2.57610798 C10.6579976,2.57610798 13.423892,5.31262088 13.423892,8.71194601 C13.423892,8.88522777 13.5386643,9 13.711946,9 C13.8852278,9 14,8.88522777 14,8.71194601 C13.9988749,5.02456689 10.9742809,2 7.28805399,2 Z" id="Path"></path>
            </g>
        </g>
    </g>
</svg>