<?xml version="1.0" encoding="UTF-8"?>
<svg width="79px" height="59px" viewBox="0 0 79 59" version="1.1" xmlns="http://www.w3.org/2000/svg" xmlns:xlink="http://www.w3.org/1999/xlink">
    <!-- Generator: sketchtool 52.5 (67469) - http://www.bohemiancoding.com/sketch -->
    <title>6DE8DBBF-321C-4DAD-B3C5-74B3B8A1895E</title>
    <desc>Created with sketchtool.</desc>
    <defs>
        <polygon id="path-1" points="0.00072 0.460795707 70.6996293 0.460795707 70.6996293 45 0.00072 45"></polygon>
        <polygon id="path-3" points="0.542103775 1.0296 15.1881537 1.0296 15.1881537 16.0604388 0.542103775 16.0604388"></polygon>
    </defs>
    <g id="Home-page---desktop" stroke="none" stroke-width="1" fill="none" fill-rule="evenodd">
        <g id="Desktop---home-page" transform="translate(-507.000000, -2467.000000)">
            <g id="Group-21" transform="translate(507.000000, 2462.000000)">
                <g id="Group-19" transform="translate(0.000000, 3.600000)">
                    <g id="Spicy-icon">
                        <g id="Group-3" transform="translate(0.000000, 15.170760)">
                            <mask id="mask-2" fill="white">
                                <use xlink:href="#path-1"></use>
                            </mask>
                            <g id="Clip-2"></g>
                            <path d="M0.06012,29.4885 C2.36952,32.9643 5.21352,36.2925 8.55072,38.8827 C10.21932,40.1841 12.03192,41.3037 13.98132,42.1029 C15.93252,42.8661 18.03312,43.3341 20.10672,43.7175 C24.27552,44.4519 28.56852,44.5077 32.72292,43.7337 C36.88452,42.9993 40.86432,41.4513 44.58132,39.4497 C48.28932,37.4067 51.76152,34.9371 54.79452,31.9869 C57.85272,29.0619 60.46272,25.6923 62.84052,22.1769 C65.14992,18.6201 67.50432,15.0165 69.12252,11.1339 C69.49512,10.1583 69.84612,9.1593 69.95592,8.1531 C70.00452,7.6545 69.99912,7.1559 69.87672,6.7023 C69.75072,6.2379 69.48432,5.9067 69.10632,5.4801 C68.53032,4.7151 67.53852,4.1913 66.66912,3.6153 C65.76912,3.0591 64.84752,2.5245 63.92052,2.0115 L63.91692,2.0097 L63.87372,1.9827 C62.85672,1.3131 61.45992,1.0647 60.16212,1.1007 C59.51412,1.1295 58.81032,1.1781 58.22892,1.3707 C57.63312,1.5813 57.05532,1.8999 56.53152,2.3049 C54.42552,3.9303 52.78392,6.1803 51.35292,8.4501 L51.36192,8.4303 L44.01252,23.3163 C41.11632,28.1079 36.79272,31.9959 31.68612,34.2405 C29.13192,35.3511 26.38512,35.9991 23.60592,36.1791 C20.83032,36.3123 18.04572,36.1359 15.31512,35.6571 C9.88632,34.6743 4.52772,32.6151 0.06012,29.4885 M0.00072,29.4219 C4.70052,32.4891 9.89892,34.5105 15.35112,35.4411 C18.07092,35.8965 20.83752,36.0495 23.58972,35.8947 C26.33292,35.6967 29.03832,35.0361 31.54572,33.9219 C36.55512,31.6863 40.80672,27.7695 43.59672,23.1003 L50.85432,8.1819 L50.86512,8.1621 C52.32492,5.8239 53.94312,3.5541 56.16432,1.8135 C56.71692,1.3797 57.34692,1.0215 58.03452,0.7749 C58.75632,0.5391 59.43312,0.5031 60.14412,0.4635 C61.55352,0.4347 62.99352,0.6273 64.28052,1.4589 L64.23552,1.4301 C65.18052,1.9449 66.10752,2.4759 67.02732,3.0357 C67.92012,3.6297 68.90292,4.1031 69.64812,5.0355 C69.97932,5.3973 70.40952,5.9211 70.55712,6.5025 C70.71912,7.0839 70.72092,7.6671 70.67052,8.2269 C70.55172,9.3501 70.19172,10.3887 69.81372,11.4039 C68.16672,15.4251 65.83932,19.0305 63.53712,22.6413 C61.16652,26.2089 58.54032,29.6541 55.41552,32.6295 C52.32492,35.6373 48.78072,38.1591 45.01332,40.2381 C37.49472,44.4717 28.44792,46.0269 19.99692,44.3187 C17.88552,43.8957 15.80292,43.4043 13.78332,42.5853 C11.79072,41.7357 9.95652,40.5657 8.28252,39.2193 C4.95972,36.4653 2.18772,33.1929 0.00072,29.4219" id="Fill-1" fill="#231F20" mask="url(#mask-2)"></path>
                        </g>
                        <g id="Group-6" transform="translate(63.000000, 0.770760)">
                            <mask id="mask-4" fill="white">
                                <use xlink:href="#path-3"></use>
                            </mask>
                            <g id="Clip-5"></g>
                            <path d="M0.55224,15.98688 C1.83924,14.32188 3.12624,12.68388 4.22964,10.93428 C5.37444,9.23508 6.26544,7.36128 7.32744,5.51808 C7.84944,4.60008 8.37684,3.68388 9.00864,2.81628 C9.32544,2.38428 9.65844,1.95768 10.08684,1.58868 C10.50084,1.18908 11.15064,0.99108 11.69604,1.03428 C12.83544,1.06308 13.87404,1.75428 14.42664,2.68488 C14.97744,3.62628 15.16824,4.70628 15.18804,5.75388 C15.18984,5.77908 15.17004,5.80068 15.14484,5.80068 C15.12144,5.80068 15.10164,5.78268 15.09984,5.75928 C15.02064,4.72248 14.76504,3.68028 14.19984,2.83248 C13.63464,1.99368 12.67164,1.45188 11.69244,1.48428 C10.66824,1.41048 10.07424,2.31768 9.48744,3.15108 C8.92044,4.00608 8.43624,4.93128 7.96104,5.85828 C7.01424,7.69068 6.27444,9.71748 4.97304,11.44368 C3.69864,13.14828 2.28024,14.73768 0.61524,16.05168 C0.59544,16.06608 0.56664,16.06248 0.55224,16.04268 C0.53784,16.02648 0.53964,16.00308 0.55224,15.98688" id="Fill-4" fill="#231F20" mask="url(#mask-4)"></path>
                        </g>
                        <path d="M68.62176,19.78182 C68.63796,18.20682 68.87016,16.66602 69.10056,15.12522 C69.35616,13.58802 69.78456,12.08502 70.19316,10.58202 C70.59816,9.07722 71.03196,7.57962 71.53776,6.10182 C71.79876,5.36562 72.07776,4.63302 72.40896,3.92202 C72.77076,3.25602 73.05156,2.41542 73.84536,2.08602 C73.86876,2.07882 73.89396,2.08782 73.90296,2.11122 C73.91016,2.13102 73.90296,2.15622 73.88136,2.16522 L73.86156,2.17602 C73.20096,2.50362 72.94716,3.35142 72.65736,4.02822 C72.38736,4.74822 72.16776,5.48982 71.96616,6.23682 C71.55216,7.72362 71.20836,9.23382 70.89336,10.74942 C70.58016,12.26682 70.35156,13.80042 69.98256,15.30522 C69.59196,16.80642 69.23556,18.31482 68.70996,19.79622 C68.70276,19.81962 68.67576,19.83402 68.65236,19.82502 C68.63436,19.81962 68.62176,19.79982 68.62176,19.78182" id="Fill-7" fill="#231F20"></path>
                        <path d="M49.66992,35.13204 C50.75172,32.07384 52.04772,29.08944 53.61552,26.22564 C54.41112,24.80184 55.23012,23.36544 56.34072,22.12344 C57.46392,20.96424 58.85352,19.70604 60.57972,19.64124 C60.60492,19.63944 60.62472,19.65924 60.62652,19.68444 C60.62652,19.70424 60.61032,19.72224 60.59232,19.72944 C59.07492,20.29104 58.01112,21.48624 57.02472,22.70664 C56.06172,23.95764 55.10412,25.23564 54.23832,26.59104 C52.55712,29.32884 51.07212,32.21064 49.75272,35.16444 C49.74372,35.18784 49.71672,35.19864 49.69512,35.18964 C49.67172,35.17884 49.66272,35.15364 49.66992,35.13204" id="Fill-9" fill="#231F20"></path>
                    </g>
                </g>
            </g>
        </g>
    </g>
</svg>