<?xml version="1.0" encoding="UTF-8"?>
<svg width="69px" height="68px" viewBox="0 0 69 68" version="1.1" xmlns="http://www.w3.org/2000/svg" xmlns:xlink="http://www.w3.org/1999/xlink">
    <!-- Generator: sketchtool 52.5 (67469) - http://www.bohemiancoding.com/sketch -->
    <title>219E46BA-815D-4B13-B600-C2E55C3EBB17</title>
    <desc>Created with sketchtool.</desc>
    <g id="Home-page---desktop" stroke="none" stroke-width="1" fill="none" fill-rule="evenodd">
        <g id="Desktop---home-page" transform="translate(-862.000000, -2461.000000)">
            <g id="Group-21" transform="translate(507.000000, 2462.000000)">
                <g id="Group-20" transform="translate(351.000000, 0.000000)">
                    <g id="Vegan-icon" transform="translate(5.400000, 0.000000)">
                        <g id="Group-5" transform="translate(32.244631, 33.611275) rotate(-29.000000) translate(-32.244631, -33.611275) translate(17.744631, 8.111275)">
                            <path d="M13.68048,41.1363 L10.39408,15.9123 L14.78928,40.9863 C14.84048,41.2728 14.63408,41.5428 14.32848,41.5908 C14.02288,41.6373 13.73488,41.4438 13.68368,41.1588 C13.68208,41.1513 13.68048,41.1423 13.68048,41.1363" id="Fill-1" fill="#010202"></path>
                            <path d="M14.16016,40.4763 C14.38096,41.8023 10.57616,50.2548 10.57616,50.2548 C10.57616,50.2548 18.32976,47.5698 23.56336,40.6773 C28.79536,33.7848 27.87696,31.9668 28.70736,27.4533 C29.53776,22.9413 26.86256,15.0453 24.84816,12.1683 C23.39536,10.0938 18.24496,4.3533 15.44176,1.2663 C14.43216,0.1563 12.64496,0.0723 11.51376,1.0728 C6.25456,5.7243 2.43376,11.7003 0.96496,18.3378 C0.09456,22.2738 0.04976,26.4213 2.13296,29.6208 C2.13296,29.6208 7.13296,36.8058 12.18096,38.4873 C17.22736,40.1688 11.61776,48.3048 11.61776,48.3048" id="Stroke-3" stroke="#010202" stroke-width="0.9" stroke-linecap="round" stroke-linejoin="round"></path>
                        </g>
                        <polygon id="Star" stroke="#000000" stroke-width="0.9" points="33.3 65.6654506 29.2861285 66.3572055 25.5544407 64.7249694 21.4916573 64.4360409 18.2590251 61.9581833 14.3834439 60.7053627 11.8377364 57.5258877 8.37459209 55.3819845 6.66375633 51.6856715 3.81431435 48.7752816 3.03777797 44.776947 0.96763748 41.2692116 1.17052996 37.201224 0 33.3 1.17052996 29.398776 0.96763748 25.3307884 3.03777797 21.823053 3.81431435 17.8247184 6.66375633 14.9143285 8.37459209 11.2180155 11.8377364 9.07411235 14.3834439 5.89463727 18.2590251 4.64181673 21.4916573 2.16395912 25.5544407 1.87503056 29.2861285 0.242794493 33.3 0.934549386 37.3138715 0.242794493 41.0455593 1.87503056 45.1083427 2.16395912 48.3409749 4.64181673 52.2165561 5.89463727 54.7622636 9.07411235 58.2254079 11.2180155 59.9362437 14.9143285 62.7856857 17.8247184 63.562222 21.823053 65.6323625 25.3307884 65.42947 29.398776 66.6 33.3 65.42947 37.201224 65.6323625 41.2692116 63.562222 44.776947 62.7856857 48.7752816 59.9362437 51.6856715 58.2254079 55.3819845 54.7622636 57.5258877 52.2165561 60.7053627 48.3409749 61.9581833 45.1083427 64.4360409 41.0455593 64.7249694 37.3138715 66.3572055"></polygon>
                    </g>
                </g>
            </g>
        </g>
    </g>
</svg>