<?xml version="1.0" encoding="UTF-8"?>
<svg width="61px" height="61px" viewBox="0 0 61 61" version="1.1" xmlns="http://www.w3.org/2000/svg" xmlns:xlink="http://www.w3.org/1999/xlink">
    <!-- Generator: sketchtool 52.5 (67469) - http://www.bohemiancoding.com/sketch -->
    <title>0F190BAF-8E0B-4DCE-8246-55FCE52A8B5B</title>
    <desc>Created with sketchtool.</desc>
    <g id="Home-page---desktop" stroke="none" stroke-width="1" fill="none" fill-rule="evenodd">
        <g id="Desktop---home-page" transform="translate(-691.000000, -2467.000000)">
            <g id="Group-21" transform="translate(507.000000, 2462.000000)">
                <g id="Group-18" transform="translate(159.400000, 5.400000)">
                    <g id="Vegetarian" transform="translate(25.200000, 0.000000)">
                        <path d="M37.85202,47.67552 L49.39362,19.45152 L39.02742,48.12912 C38.90862,48.45672 38.54862,48.62592 38.22102,48.50712 C37.89342,48.38832 37.72422,48.02832 37.84302,47.70072 C37.84482,47.69352 37.85022,47.68272 37.85202,47.67552" id="Fill-1" fill="#010202"></path>
                        <path d="M38.67912,47.23686 C38.07972,48.73446 39.98592,59.57406 39.98592,59.57406 C39.98592,59.57406 32.20452,54.48726 28.31472,45.10926 C24.42312,35.73126 25.92072,33.83586 26.21952,28.34946 C26.51832,22.86126 31.56912,14.29866 34.54992,11.43846 C36.69732,9.37746 43.88472,3.95946 47.78712,1.05246 C49.19112,0.00666 51.17292,0.35946 52.14492,1.81386 C56.66652,8.57466 59.25312,16.52706 59.08392,24.65946 C58.98312,29.48166 57.91932,34.34526 54.77832,37.56186 C54.77832,37.56186 47.36952,44.70966 41.38272,45.40806 C35.39772,46.10646 39.36852,57.03246 39.36852,57.03246" id="Stroke-3" stroke="#010202" stroke-width="0.9" stroke-linecap="round" stroke-linejoin="round"></path>
                        <path d="M23.02668,48.80052 C23.02668,48.80052 12.95028,46.30572 9.35928,42.21612 C5.76828,38.12472 -0.01872,32.33952 0.47988,7.89732 C0.47988,7.89732 4.27068,4.00752 24.42348,14.88132" id="Stroke-5" stroke="#010202" stroke-width="0.9" stroke-linecap="round" stroke-linejoin="round"></path>
                        <path d="M12.47004,18.74196 C13.94784,20.21076 15.36624,21.73716 16.71084,23.33556 C17.38404,24.13296 18.09864,24.90876 18.63144,25.82676 C19.11924,26.74656 19.69524,27.72216 19.67904,28.84176 C19.67904,28.86696 19.65924,28.88676 19.63404,28.88676 C19.61604,28.88676 19.60164,28.87596 19.59444,28.86156 L19.59084,28.85436 C19.11924,27.93276 18.49644,27.14436 17.88084,26.32356 C17.27244,25.50456 16.73244,24.62616 16.14204,23.77656 C14.93604,22.09716 13.68324,20.43936 12.40344,18.80136 C12.38724,18.78156 12.39084,18.75456 12.41064,18.73836 C12.42864,18.72396 12.45384,18.72576 12.47004,18.74196" id="Fill-7" fill="#010202"></path>
                    </g>
                </g>
            </g>
        </g>
    </g>
</svg>